<?xml version="1.0" encoding="UTF-8" standalone="no"?>
<!DOCTYPE svg PUBLIC "-//W3C//DTD SVG 1.1//EN" "http://www.w3.org/Graphics/SVG/1.1/DTD/svg11.dtd">
<svg width="207.36" height="213.12" viewBox="0.00 0.00 1008.00 1036.00" xmlns="http://www.w3.org/2000/svg" xmlns:xlink="http://www.w3.org/1999/xlink">
<g stroke-linecap="round" transform="translate(-288.00, -275.00)" id="Layer_43">
<path d="M672.85,647.06 C675.10,652.95 681.03,668.45 685.45,674.36 C687.99,677.69 694.06,682.57 697.49,684.30 C701.01,686.02 708.89,688.08 712.87,688.32 C717.23,688.54 723.21,687.57 726.92,686.21 C729.94,685.06 736.18,681.69 739.10,679.63 C742.27,677.37 747.93,671.80 750.62,668.32 C753.61,664.39 756.34,659.68 758.47,655.12 C761.06,649.33 765.62,635.58 767.47,627.93 C769.38,619.98 771.55,603.09 771.83,593.91 C772.06,586.08 770.88,570.95 770.06,563.91 C769.02,556.69 766.32,541.77 764.65,534.05 C762.76,525.78 758.06,510.68 754.97,503.00 C751.86,495.32 743.71,478.95 740.07,473.21 C736.01,466.88 726.98,454.35 722.01,448.14 C716.84,441.95 705.72,429.67 699.77,423.58 C693.68,417.63 681.40,406.47 675.22,401.25 C669.01,396.29 655.25,386.20 650.21,382.87 C644.90,379.40 629.25,371.45 622.01,368.43 C614.78,365.43 600.11,360.63 592.70,358.84 C586.49,357.36 569.98,354.46 562.13,353.49 C554.19,352.68 533.64,351.48 529.64,351.51 C526.66,351.53 507.69,352.81 500.18,353.56 C492.58,354.47 477.10,356.77 469.22,358.16 C457.89,360.35 445.41,363.53 437.81,366.29 C430.22,369.07 415.59,376.14 408.55,380.43 C400.74,385.22 390.05,393.44 383.66,399.34 C378.20,404.39 367.68,415.60 362.61,421.75 C357.57,427.98 348.81,440.05 343.15,448.61 C338.54,455.98 329.92,470.63 325.91,477.87 C322.11,485.06 315.12,499.26 311.94,506.28 C308.95,513.24 303.38,527.45 300.70,535.95 C297.99,544.85 293.88,562.27 292.50,570.78 C291.13,579.28 289.99,592.77 289.63,603.92 C289.56,611.71 290.03,627.46 290.59,633.38 C291.24,640.17 293.76,654.70 296.08,662.05 C297.54,666.62 300.95,675.00 302.91,678.80 C308.30,689.17 324.64,707.67 329.13,712.07 C331.33,714.26 339.95,720.12 343.61,721.68 C344.96,722.23 355.81,725.27 356.62,725.50 C352.03,721.24 339.83,709.96 335.19,703.48 C331.21,697.87 325.58,684.72 323.98,678.21 C322.31,671.23 321.03,654.99 321.00,645.09 C321.12,637.85 321.89,621.98 322.56,613.35 C323.48,603.12 326.00,587.75 327.99,580.25 C330.21,571.96 336.97,555.62 342.05,547.82 C345.22,542.99 362.78,522.47 364.21,520.79 C363.53,531.57 361.22,567.95 360.99,576.04 C360.92,585.24 361.56,603.89 362.27,613.35 C363.12,622.30 365.36,637.72 366.66,645.22 C369.58,660.34 377.58,691.08 382.64,706.84 C387.81,722.17 399.84,752.42 406.92,767.55 C414.42,782.90 431.11,812.54 440.17,826.72 C444.47,833.22 452.90,845.20 457.01,850.69 C463.00,858.29 472.44,869.04 479.53,875.34 C486.57,881.55 498.10,888.44 505.60,892.15 C510.73,894.68 524.36,900.30 533.38,901.39 C535.12,901.59 547.14,902.06 548.07,902.11 C546.06,901.17 540.98,898.81 537.91,897.39 C530.68,893.88 518.34,883.06 513.31,877.65 C508.26,872.19 498.63,860.09 494.15,853.18 C489.71,846.27 481.78,831.07 478.30,822.79 C476.14,817.61 466.52,791.14 465.74,788.99 C468.24,792.46 474.34,800.92 477.93,805.91 C484.64,815.24 493.12,825.31 500.55,832.29 C507.06,838.37 522.67,850.68 528.31,854.84 C540.15,863.27 568.19,880.89 583.54,889.89 C610.42,905.64 670.93,941.56 695.89,957.09 C712.34,967.90 726.16,978.46 730.01,982.69 C732.06,984.97 735.36,990.12 735.98,991.95 C736.93,994.88 736.92,1001.82 735.98,1005.20 C735.00,1008.51 731.09,1014.85 727.90,1017.76 C723.75,1021.45 710.74,1029.64 708.30,1031.19 C710.65,1031.55 719.74,1032.99 720.21,1033.05 C722.70,1033.36 726.51,1033.34 728.78,1032.94 C733.31,1032.10 739.33,1028.98 742.59,1026.27 C745.10,1024.13 750.05,1018.72 752.55,1015.38 C755.32,1011.62 758.90,1004.83 760.04,1001.10 C761.15,997.32 761.78,989.98 761.41,986.89 C760.63,981.00 756.68,969.59 753.25,963.28 C749.55,956.56 739.21,943.65 731.81,936.56 C723.29,928.45 699.40,909.71 685.53,899.81 C672.99,891.30 645.62,873.36 631.90,863.01 C625.06,857.64 611.45,846.32 604.68,840.36 C591.81,828.62 569.90,805.94 559.38,794.18 C548.93,781.89 525.82,752.49 518.21,741.91 C513.44,735.01 504.46,721.26 500.26,714.40 C496.24,707.56 488.78,693.90 485.33,687.09 C482.08,680.30 474.94,663.94 473.17,659.10 C470.04,650.55 465.05,633.59 463.17,625.13 C461.31,616.67 458.82,599.81 458.20,591.41 C457.70,584.46 457.63,566.54 457.85,558.65 C458.26,550.99 459.59,536.32 460.59,529.44 C461.65,522.62 464.84,508.33 466.92,502.61 C470.09,493.92 478.04,478.89 482.85,472.46 C487.64,466.12 498.96,455.52 505.05,451.20 C511.07,446.97 523.50,440.71 530.45,438.42 C536.02,436.62 551.69,435.01 559.20,435.26 C566.71,435.54 582.19,438.08 590.28,440.33 C598.10,442.53 613.24,448.49 620.55,452.26 C628.82,456.54 641.64,465.51 646.93,469.81 C653.01,474.77 664.75,485.86 670.39,491.99 C673.76,495.67 686.50,510.91 691.41,517.17 C696.09,523.41 706.83,538.85 708.69,541.88 C713.06,549.06 721.71,565.94 725.00,573.72 C728.35,581.71 733.13,596.53 734.49,603.45 C735.16,606.89 735.99,613.48 736.14,616.63 C736.31,620.58 735.85,627.36 734.90,631.78 C733.95,636.09 730.83,644.05 728.69,647.62 C726.59,651.07 721.35,657.35 718.78,659.55 C716.19,661.72 710.51,664.63 708.13,665.04 C704.60,665.58 697.09,664.11 693.35,662.15 C690.47,660.61 676.12,649.57 672.85,647.06 Z" fill="none" stroke="rgb(0, 0, 0)" stroke-width="3.00" stroke-opacity="1.00" stroke-linejoin="miter"/>
<path d="M791.54,280.46 C789.24,292.15 780.98,334.00 779.49,339.85 C777.16,348.96 771.34,364.63 767.85,371.17 C766.22,374.20 762.00,380.83 759.26,384.22 C756.25,387.90 749.26,394.14 745.51,396.49 C741.73,398.81 733.91,401.88 729.14,402.91 C716.06,405.49 702.00,408.26 701.02,408.46 C705.75,409.43 717.39,411.82 724.30,413.24 C731.61,414.75 737.04,416.13 741.08,417.99 C745.05,419.86 752.33,425.08 755.63,428.42 C759.03,431.91 764.45,439.52 766.49,443.12 C769.98,449.41 775.56,463.54 777.86,471.94 C781.33,484.69 787.20,525.41 789.46,541.08 C790.24,546.51 791.18,553.06 791.34,554.17 C793.04,542.74 797.39,513.71 800.03,496.10 C801.64,486.50 806.02,469.23 808.74,461.78 C811.47,454.37 818.99,439.95 824.06,433.80 C827.21,430.04 834.16,423.90 837.97,421.54 C841.82,419.19 849.11,416.33 854.54,414.97 C867.29,411.82 881.03,408.42 882.01,408.18 C877.34,407.32 865.78,405.16 858.88,403.88 C852.89,402.77 846.49,400.98 842.54,399.02 C838.71,397.09 831.63,391.76 828.38,388.36 C823.02,382.70 814.74,368.70 811.60,361.18 C808.48,353.63 803.68,337.28 801.20,325.80 C797.77,309.67 792.94,287.00 791.54,280.46 Z" fill="none" stroke="rgb(0, 0, 0)" stroke-width="3.00" stroke-opacity="1.00" stroke-linejoin="miter"/>
<path d="M791.26,973.93 C790.50,979.19 788.66,991.95 787.57,999.44 C785.37,1014.72 782.88,1027.71 780.15,1035.54 C778.78,1039.42 775.66,1046.21 773.75,1049.49 C771.67,1053.00 766.14,1059.84 762.65,1062.78 C759.22,1065.61 751.42,1069.74 747.16,1070.98 C745.95,1071.33 726.47,1075.97 721.40,1077.17 C730.48,1080.58 749.60,1087.76 752.88,1090.19 C756.08,1092.61 761.92,1099.55 764.55,1104.07 C769.53,1112.79 775.28,1131.07 777.20,1139.05 C778.70,1145.90 781.36,1160.82 782.52,1168.89 C784.63,1185.85 787.09,1225.22 788.12,1245.18 C789.45,1273.32 790.89,1303.77 791.00,1306.08 C792.55,1279.92 797.39,1198.78 799.98,1176.57 C801.13,1168.05 803.73,1152.26 805.19,1144.98 C807.06,1136.74 811.55,1120.59 814.87,1112.90 C817.37,1107.16 822.98,1097.98 826.08,1094.54 C829.22,1091.13 835.21,1087.22 839.70,1085.55 C850.24,1081.67 861.59,1077.50 862.40,1077.20 C857.38,1076.03 838.09,1071.54 836.90,1071.21 C832.67,1069.99 824.90,1065.90 821.46,1063.09 C817.95,1060.16 812.35,1053.32 810.22,1049.81 C806.41,1043.42 800.74,1027.98 798.75,1018.58 C797.98,1014.89 792.12,979.22 791.26,973.93 Z" fill="none" stroke="rgb(0, 0, 0)" stroke-width="3.00" stroke-opacity="1.00" stroke-linejoin="miter"/>
<path d="M544.07,738.30 C564.14,755.01 613.00,795.55 641.79,819.40 C669.98,842.18 721.10,883.03 744.03,901.09 C764.40,918.01 790.11,942.43 790.79,943.07 C798.85,936.01 819.98,917.70 836.88,903.65 C860.49,884.67 910.54,844.59 936.98,823.50 C964.84,800.65 1014.46,759.55 1036.22,741.29 C1037.03,740.61 1038.58,739.31 1039.32,738.68 C1017.46,752.80 946.95,798.41 928.50,809.92 C909.27,821.30 884.03,834.71 872.28,839.87 C866.65,842.20 853.47,846.90 845.39,847.29 C841.43,847.44 834.98,846.10 832.48,844.60 C830.03,843.06 826.71,838.53 825.58,835.15 C823.70,829.34 813.54,788.52 809.71,772.11 C802.58,737.55 793.19,691.94 790.93,680.90 C785.44,709.48 773.04,773.01 765.80,806.84 C763.91,814.95 759.04,835.27 758.27,837.15 C757.03,840.07 752.88,844.37 750.08,845.63 C747.23,846.85 740.02,847.58 735.65,847.08 C729.25,846.31 716.46,841.84 709.87,839.05 C697.71,833.61 671.66,819.58 651.84,807.71 C618.29,786.14 564.41,751.44 544.07,738.30 Z" fill="none" stroke="rgb(0, 0, 0)" stroke-width="3.00" stroke-opacity="1.00" stroke-linejoin="miter"/>
<path d="M791.18,800.79 C788.37,814.90 783.03,841.77 780.89,848.24 C779.48,852.45 776.19,859.56 774.31,862.47 C772.24,865.59 766.83,871.01 763.36,872.74 C761.48,873.63 757.47,874.71 755.33,874.89 C750.95,875.19 731.62,870.46 725.74,869.01 C725.74,869.01 791.42,930.32 791.42,930.32 C791.42,930.32 860.08,867.97 860.08,867.97 C854.65,869.47 835.77,874.66 832.50,874.88 C830.41,875.00 826.38,874.61 824.49,874.10 C820.62,872.98 814.38,868.49 811.97,865.62 C809.76,862.91 806.07,856.64 804.41,852.75 C801.24,845.21 796.66,825.21 794.60,816.02 C793.15,809.59 791.44,801.97 791.18,800.79 Z" fill="none" stroke="rgb(0, 0, 0)" stroke-width="3.00" stroke-opacity="1.00" stroke-linejoin="miter"/>
<path d="M910.94,647.09 C908.68,652.98 902.73,668.47 898.30,674.36 C895.76,677.69 889.68,682.55 886.24,684.28 C882.73,685.99 874.84,688.03 870.86,688.26 C866.50,688.47 860.52,687.48 856.82,686.11 C853.80,684.96 847.56,681.57 844.64,679.51 C841.48,677.23 835.83,671.66 833.14,668.16 C830.15,664.23 827.43,659.51 825.30,654.95 C822.72,649.15 818.19,635.39 816.34,627.74 C814.44,619.78 812.30,602.89 812.02,593.70 C811.81,585.87 813.01,570.75 813.84,563.71 C814.89,556.50 817.61,541.58 819.29,533.87 C821.18,525.60 825.91,510.51 829.01,502.84 C832.13,495.17 840.30,478.82 843.95,473.08 C848.01,466.77 857.06,454.25 862.04,448.05 C867.22,441.88 878.35,429.63 884.31,423.55 C890.42,417.62 902.71,406.48 908.90,401.29 C915.11,396.34 928.88,386.29 933.93,382.97 C939.24,379.51 954.91,371.60 962.14,368.60 C969.38,365.61 984.06,360.85 991.47,359.08 C997.68,357.61 1014.20,354.75 1022.05,353.80 C1029.99,353.01 1050.54,351.86 1054.54,351.89 C1057.52,351.93 1076.49,353.25 1084.00,354.02 C1091.60,354.95 1107.08,357.29 1114.96,358.69 C1126.28,360.91 1138.76,364.12 1146.35,366.90 C1153.94,369.70 1168.56,376.81 1175.59,381.11 C1183.39,385.92 1194.08,394.17 1200.46,400.08 C1205.91,405.15 1216.42,416.38 1221.48,422.55 C1226.51,428.79 1235.25,440.88 1240.90,449.45 C1245.50,456.83 1254.10,471.50 1258.10,478.76 C1261.89,485.95 1268.86,500.17 1272.04,507.20 C1275.02,514.16 1280.57,528.39 1283.23,536.89 C1285.94,545.80 1290.02,563.23 1291.39,571.74 C1292.75,580.25 1293.87,593.74 1294.22,604.90 C1294.27,612.68 1293.78,628.43 1293.22,634.35 C1292.56,641.14 1290.02,655.67 1287.69,663.01 C1286.23,667.58 1282.80,675.94 1280.84,679.74 C1275.43,690.09 1259.07,708.56 1254.57,712.95 C1252.37,715.13 1243.74,720.97 1240.08,722.52 C1238.73,723.07 1227.88,726.08 1227.06,726.31 C1231.66,722.06 1243.88,710.81 1248.52,704.34 C1252.51,698.74 1258.16,685.61 1259.77,679.09 C1261.45,672.12 1262.75,655.88 1262.79,645.99 C1262.69,638.75 1261.93,622.87 1261.28,614.25 C1260.36,604.01 1257.87,588.64 1255.89,581.13 C1253.68,572.83 1246.94,556.48 1241.87,548.66 C1238.70,543.83 1221.17,523.26 1219.75,521.58 C1220.41,532.36 1222.68,568.75 1222.90,576.84 C1222.95,586.04 1222.29,604.69 1221.57,614.14 C1220.70,623.10 1218.44,638.51 1217.13,646.01 C1214.19,661.11 1206.15,691.84 1201.07,707.59 C1195.88,722.90 1183.81,753.12 1176.71,768.23 C1169.19,783.57 1152.46,813.17 1143.38,827.32 C1139.07,833.81 1130.63,845.77 1126.51,851.25 C1120.51,858.84 1111.06,869.56 1103.96,875.85 C1096.90,882.04 1085.37,888.90 1077.86,892.59 C1072.73,895.11 1059.09,900.70 1050.08,901.76 C1048.33,901.96 1036.31,902.40 1035.38,902.45 C1037.40,901.51 1042.48,899.16 1045.54,897.75 C1052.78,894.26 1065.13,883.47 1070.17,878.07 C1075.23,872.62 1084.88,860.55 1089.36,853.65 C1093.82,846.75 1101.76,831.57 1105.25,823.29 C1107.42,818.12 1117.07,791.68 1117.86,789.53 C1115.35,792.99 1109.25,801.44 1105.65,806.42 C1098.93,815.74 1090.44,825.79 1082.99,832.75 C1076.47,838.81 1060.85,851.08 1055.21,855.23 C1043.35,863.62 1015.29,881.17 999.93,890.14 C973.03,905.82 912.47,941.60 887.49,957.07 C871.02,967.83 857.19,978.36 853.34,982.58 C851.28,984.86 847.97,990.00 847.35,991.83 C846.40,994.76 846.39,1001.69 847.34,1005.08 C848.31,1008.39 852.21,1014.74 855.40,1017.65 C859.54,1021.36 872.54,1029.58 874.98,1031.13 C872.62,1031.49 863.53,1032.90 863.06,1032.96 C860.58,1033.27 856.77,1033.24 854.50,1032.84 C849.97,1031.99 843.95,1028.85 840.69,1026.13 C838.19,1023.99 833.25,1018.56 830.75,1015.21 C827.98,1011.45 824.41,1004.65 823.28,1000.92 C822.17,997.14 821.55,989.79 821.93,986.70 C822.72,980.81 826.68,969.42 830.12,963.12 C833.82,956.41 844.18,943.53 851.59,936.45 C860.12,928.36 884.04,909.68 897.92,899.81 C910.47,891.33 937.87,873.46 951.60,863.15 C958.45,857.79 972.08,846.50 978.86,840.56 C991.74,828.86 1013.67,806.23 1024.22,794.49 C1034.68,782.23 1057.83,752.88 1065.45,742.32 C1070.23,735.44 1079.23,721.71 1083.44,714.86 C1087.47,708.02 1094.95,694.39 1098.40,687.59 C1101.67,680.80 1108.82,664.46 1110.61,659.62 C1113.75,651.08 1118.76,634.13 1120.65,625.68 C1122.52,617.22 1125.03,600.37 1125.66,591.97 C1126.17,585.02 1126.27,567.10 1126.05,559.21 C1125.66,551.55 1124.35,536.88 1123.35,529.99 C1122.31,523.17 1119.13,508.88 1117.07,503.15 C1113.90,494.45 1105.98,479.40 1101.17,472.96 C1096.38,466.61 1085.09,455.98 1079.00,451.65 C1072.99,447.40 1060.56,441.12 1053.62,438.81 C1048.05,436.99 1032.38,435.34 1024.87,435.58 C1017.36,435.84 1001.88,438.34 993.78,440.57 C985.96,442.75 970.81,448.67 963.49,452.42 C955.22,456.69 942.39,465.63 937.09,469.91 C931.00,474.85 919.25,485.92 913.61,492.03 C910.23,495.70 897.47,510.91 892.55,517.17 C887.86,523.38 877.10,538.80 875.24,541.83 C870.86,548.99 862.19,565.86 858.89,573.63 C855.52,581.61 850.73,596.42 849.35,603.33 C848.68,606.77 847.85,613.36 847.69,616.51 C847.52,620.46 847.96,627.24 848.91,631.66 C849.86,635.98 852.97,643.94 855.10,647.52 C857.19,650.97 862.42,657.26 864.99,659.47 C867.58,661.65 873.25,664.57 875.63,664.98 C879.17,665.53 886.68,664.08 890.41,662.14 C893.30,660.60 907.66,649.60 910.94,647.09 Z" fill="none" stroke="rgb(0, 0, 0)" stroke-width="3.00" stroke-opacity="1.00" stroke-linejoin="miter"/>
</g>
</svg>
